<mxfile host="app.diagrams.net" agent="Mozilla/5.0 (X11; Linux x86_64) AppleWebKit/537.36 (KHTML, like Gecko) Chrome/133.0.0.0 Safari/537.36" version="26.0.16">
  <diagram name="Side-1" id="kOkvsYQlrEaUKX3l108i">
    <mxGraphModel dx="1434" dy="754" grid="1" gridSize="10" guides="1" tooltips="1" connect="1" arrows="1" fold="1" page="1" pageScale="1" pageWidth="827" pageHeight="1169" math="0" shadow="0">
      <root>
        <mxCell id="0" />
        <mxCell id="1" parent="0" />
        <mxCell id="m0AU5EytKcPKCi6J2XwE-1" style="edgeStyle=orthogonalEdgeStyle;rounded=0;orthogonalLoop=1;jettySize=auto;html=1;entryX=0.5;entryY=0;entryDx=0;entryDy=0;" edge="1" parent="1" source="m0AU5EytKcPKCi6J2XwE-2" target="m0AU5EytKcPKCi6J2XwE-3">
          <mxGeometry relative="1" as="geometry" />
        </mxCell>
        <mxCell id="m0AU5EytKcPKCi6J2XwE-2" value="Mine repositories and share&lt;span style=&quot;background-color: transparent; color: light-dark(rgb(0, 0, 0), rgb(255, 255, 255));&quot;&gt;&amp;nbsp;raw data&lt;/span&gt;" style="rounded=0;whiteSpace=wrap;html=1;fillColor=#d5e8d4;strokeColor=#82b366;" vertex="1" parent="1">
          <mxGeometry x="540" y="20" width="120" height="60" as="geometry" />
        </mxCell>
        <mxCell id="m0AU5EytKcPKCi6J2XwE-3" value="Define data stage formats" style="rounded=0;whiteSpace=wrap;html=1;fillColor=#fff2cc;strokeColor=#d6b656;" vertex="1" parent="1">
          <mxGeometry x="310" y="180" width="580" height="60" as="geometry" />
        </mxCell>
        <mxCell id="m0AU5EytKcPKCi6J2XwE-4" style="edgeStyle=orthogonalEdgeStyle;rounded=0;orthogonalLoop=1;jettySize=auto;html=1;exitX=0.5;exitY=1;exitDx=0;exitDy=0;" edge="1" parent="1" source="m0AU5EytKcPKCi6J2XwE-21" target="m0AU5EytKcPKCi6J2XwE-13">
          <mxGeometry relative="1" as="geometry" />
        </mxCell>
        <mxCell id="m0AU5EytKcPKCi6J2XwE-5" value="Document data" style="rounded=0;whiteSpace=wrap;html=1;" vertex="1" parent="1">
          <mxGeometry x="310" y="300" width="120" height="60" as="geometry" />
        </mxCell>
        <mxCell id="m0AU5EytKcPKCi6J2XwE-6" value="2_cleaned" style="rounded=0;whiteSpace=wrap;html=1;fillColor=#fff2cc;strokeColor=#d6b656;" vertex="1" parent="1">
          <mxGeometry x="310" y="230" width="120" height="70" as="geometry" />
        </mxCell>
        <mxCell id="m0AU5EytKcPKCi6J2XwE-7" value="3_patches" style="rounded=0;whiteSpace=wrap;html=1;fillColor=#fff2cc;strokeColor=#d6b656;" vertex="1" parent="1">
          <mxGeometry x="460" y="230" width="120" height="70" as="geometry" />
        </mxCell>
        <mxCell id="m0AU5EytKcPKCi6J2XwE-8" value="4_categorized" style="rounded=0;whiteSpace=wrap;html=1;fillColor=#fff2cc;strokeColor=#d6b656;" vertex="1" parent="1">
          <mxGeometry x="620" y="230" width="120" height="70" as="geometry" />
        </mxCell>
        <mxCell id="m0AU5EytKcPKCi6J2XwE-9" value="5_frequency_table" style="rounded=0;whiteSpace=wrap;html=1;fillColor=#fff2cc;strokeColor=#d6b656;" vertex="1" parent="1">
          <mxGeometry x="770" y="230" width="120" height="70" as="geometry" />
        </mxCell>
        <mxCell id="m0AU5EytKcPKCi6J2XwE-10" style="edgeStyle=orthogonalEdgeStyle;rounded=0;orthogonalLoop=1;jettySize=auto;html=1;" edge="1" parent="1" source="m0AU5EytKcPKCi6J2XwE-11" target="m0AU5EytKcPKCi6J2XwE-13">
          <mxGeometry relative="1" as="geometry" />
        </mxCell>
        <mxCell id="m0AU5EytKcPKCi6J2XwE-11" value="Find bug keywords" style="rounded=0;whiteSpace=wrap;html=1;fillColor=#fff2cc;strokeColor=#d6b656;" vertex="1" parent="1">
          <mxGeometry x="460" y="480" width="120" height="60" as="geometry" />
        </mxCell>
        <mxCell id="m0AU5EytKcPKCi6J2XwE-12" style="edgeStyle=orthogonalEdgeStyle;rounded=0;orthogonalLoop=1;jettySize=auto;html=1;entryX=0;entryY=0.5;entryDx=0;entryDy=0;" edge="1" parent="1" source="m0AU5EytKcPKCi6J2XwE-13" target="m0AU5EytKcPKCi6J2XwE-15">
          <mxGeometry relative="1" as="geometry">
            <Array as="points">
              <mxPoint x="750" y="510" />
              <mxPoint x="750" y="420" />
            </Array>
          </mxGeometry>
        </mxCell>
        <mxCell id="m0AU5EytKcPKCi6J2XwE-13" value="Test keywords on data" style="rounded=0;whiteSpace=wrap;html=1;" vertex="1" parent="1">
          <mxGeometry x="620" y="480" width="120" height="60" as="geometry" />
        </mxCell>
        <mxCell id="m0AU5EytKcPKCi6J2XwE-14" style="edgeStyle=orthogonalEdgeStyle;rounded=0;orthogonalLoop=1;jettySize=auto;html=1;entryX=0.5;entryY=0;entryDx=0;entryDy=0;" edge="1" parent="1" source="m0AU5EytKcPKCi6J2XwE-15" target="m0AU5EytKcPKCi6J2XwE-31">
          <mxGeometry relative="1" as="geometry" />
        </mxCell>
        <mxCell id="m0AU5EytKcPKCi6J2XwE-15" value="Analyze results" style="rounded=0;whiteSpace=wrap;html=1;" vertex="1" parent="1">
          <mxGeometry x="770" y="390" width="120" height="60" as="geometry" />
        </mxCell>
        <mxCell id="m0AU5EytKcPKCi6J2XwE-16" value="Document data" style="rounded=0;whiteSpace=wrap;html=1;" vertex="1" parent="1">
          <mxGeometry x="460" y="300" width="120" height="60" as="geometry" />
        </mxCell>
        <mxCell id="m0AU5EytKcPKCi6J2XwE-17" value="Document data" style="rounded=0;whiteSpace=wrap;html=1;" vertex="1" parent="1">
          <mxGeometry x="620" y="300" width="120" height="60" as="geometry" />
        </mxCell>
        <mxCell id="m0AU5EytKcPKCi6J2XwE-18" value="Document data" style="rounded=0;whiteSpace=wrap;html=1;" vertex="1" parent="1">
          <mxGeometry x="770" y="300" width="120" height="60" as="geometry" />
        </mxCell>
        <mxCell id="m0AU5EytKcPKCi6J2XwE-19" style="edgeStyle=orthogonalEdgeStyle;rounded=0;orthogonalLoop=1;jettySize=auto;html=1;exitX=0.5;exitY=1;exitDx=0;exitDy=0;" edge="1" parent="1" source="m0AU5EytKcPKCi6J2XwE-18" target="m0AU5EytKcPKCi6J2XwE-15">
          <mxGeometry relative="1" as="geometry">
            <mxPoint x="829.9999999999998" y="420" as="sourcePoint" />
          </mxGeometry>
        </mxCell>
        <mxCell id="m0AU5EytKcPKCi6J2XwE-20" style="edgeStyle=orthogonalEdgeStyle;rounded=0;orthogonalLoop=1;jettySize=auto;html=1;entryX=0;entryY=0.5;entryDx=0;entryDy=0;startArrow=classic;startFill=1;endArrow=none;" edge="1" parent="1" source="m0AU5EytKcPKCi6J2XwE-21" target="m0AU5EytKcPKCi6J2XwE-18">
          <mxGeometry relative="1" as="geometry">
            <Array as="points">
              <mxPoint x="750" y="390" />
              <mxPoint x="750" y="330" />
            </Array>
          </mxGeometry>
        </mxCell>
        <mxCell id="m0AU5EytKcPKCi6J2XwE-21" value="Implement transition" style="rounded=0;whiteSpace=wrap;html=1;" vertex="1" parent="1">
          <mxGeometry x="620" y="360" width="120" height="60" as="geometry" />
        </mxCell>
        <mxCell id="m0AU5EytKcPKCi6J2XwE-22" style="edgeStyle=orthogonalEdgeStyle;rounded=0;orthogonalLoop=1;jettySize=auto;html=1;entryX=0;entryY=0.5;entryDx=0;entryDy=0;startArrow=classic;startFill=1;endArrow=none;" edge="1" parent="1" source="m0AU5EytKcPKCi6J2XwE-23" target="m0AU5EytKcPKCi6J2XwE-17">
          <mxGeometry relative="1" as="geometry" />
        </mxCell>
        <mxCell id="m0AU5EytKcPKCi6J2XwE-23" value="Implement transition" style="rounded=0;whiteSpace=wrap;html=1;" vertex="1" parent="1">
          <mxGeometry x="460" y="360" width="120" height="60" as="geometry" />
        </mxCell>
        <mxCell id="m0AU5EytKcPKCi6J2XwE-24" style="edgeStyle=orthogonalEdgeStyle;rounded=0;orthogonalLoop=1;jettySize=auto;html=1;entryX=0;entryY=0.5;entryDx=0;entryDy=0;startArrow=classic;startFill=1;endArrow=none;" edge="1" parent="1" source="m0AU5EytKcPKCi6J2XwE-25" target="m0AU5EytKcPKCi6J2XwE-16">
          <mxGeometry relative="1" as="geometry">
            <Array as="points">
              <mxPoint x="440" y="390" />
              <mxPoint x="440" y="330" />
            </Array>
          </mxGeometry>
        </mxCell>
        <mxCell id="m0AU5EytKcPKCi6J2XwE-25" value="Implement transition" style="rounded=0;whiteSpace=wrap;html=1;" vertex="1" parent="1">
          <mxGeometry x="310" y="360" width="120" height="60" as="geometry" />
        </mxCell>
        <mxCell id="m0AU5EytKcPKCi6J2XwE-26" style="edgeStyle=orthogonalEdgeStyle;rounded=0;orthogonalLoop=1;jettySize=auto;html=1;entryX=0;entryY=0.5;entryDx=0;entryDy=0;" edge="1" parent="1" source="m0AU5EytKcPKCi6J2XwE-27" target="m0AU5EytKcPKCi6J2XwE-56">
          <mxGeometry relative="1" as="geometry">
            <Array as="points">
              <mxPoint x="830" y="660" />
              <mxPoint x="1120" y="660" />
              <mxPoint x="1120" y="570" />
            </Array>
          </mxGeometry>
        </mxCell>
        <mxCell id="m0AU5EytKcPKCi6J2XwE-27" value="Draw conclussions" style="rounded=0;whiteSpace=wrap;html=1;" vertex="1" parent="1">
          <mxGeometry x="770" y="570" width="120" height="60" as="geometry" />
        </mxCell>
        <mxCell id="m0AU5EytKcPKCi6J2XwE-28" style="edgeStyle=orthogonalEdgeStyle;rounded=0;orthogonalLoop=1;jettySize=auto;html=1;" edge="1" parent="1" source="m0AU5EytKcPKCi6J2XwE-29" target="m0AU5EytKcPKCi6J2XwE-31">
          <mxGeometry relative="1" as="geometry" />
        </mxCell>
        <mxCell id="m0AU5EytKcPKCi6J2XwE-29" value="Visualize data" style="rounded=0;whiteSpace=wrap;html=1;" vertex="1" parent="1">
          <mxGeometry x="930" y="480" width="120" height="60" as="geometry" />
        </mxCell>
        <mxCell id="m0AU5EytKcPKCi6J2XwE-30" style="edgeStyle=orthogonalEdgeStyle;rounded=0;orthogonalLoop=1;jettySize=auto;html=1;" edge="1" parent="1" source="m0AU5EytKcPKCi6J2XwE-31" target="m0AU5EytKcPKCi6J2XwE-27">
          <mxGeometry relative="1" as="geometry" />
        </mxCell>
        <mxCell id="m0AU5EytKcPKCi6J2XwE-31" value="Interpret analytics" style="rounded=0;whiteSpace=wrap;html=1;" vertex="1" parent="1">
          <mxGeometry x="770" y="480" width="120" height="60" as="geometry" />
        </mxCell>
        <mxCell id="m0AU5EytKcPKCi6J2XwE-32" style="edgeStyle=orthogonalEdgeStyle;rounded=0;orthogonalLoop=1;jettySize=auto;html=1;entryX=0.569;entryY=0.011;entryDx=0;entryDy=0;entryPerimeter=0;" edge="1" parent="1" source="m0AU5EytKcPKCi6J2XwE-15" target="m0AU5EytKcPKCi6J2XwE-29">
          <mxGeometry relative="1" as="geometry" />
        </mxCell>
        <mxCell id="m0AU5EytKcPKCi6J2XwE-33" style="edgeStyle=orthogonalEdgeStyle;rounded=0;orthogonalLoop=1;jettySize=auto;html=1;entryX=0;entryY=0.5;entryDx=0;entryDy=0;exitX=1;exitY=0.5;exitDx=0;exitDy=0;" edge="1" parent="1" source="m0AU5EytKcPKCi6J2XwE-29" target="m0AU5EytKcPKCi6J2XwE-49">
          <mxGeometry relative="1" as="geometry">
            <mxPoint x="1050" y="600" as="sourcePoint" />
          </mxGeometry>
        </mxCell>
        <mxCell id="m0AU5EytKcPKCi6J2XwE-34" value="Create bullet points for section" style="rounded=0;whiteSpace=wrap;html=1;" vertex="1" parent="1">
          <mxGeometry x="1150" y="240" width="120" height="60" as="geometry" />
        </mxCell>
        <mxCell id="m0AU5EytKcPKCi6J2XwE-35" value="review section body" style="rounded=0;whiteSpace=wrap;html=1;" vertex="1" parent="1">
          <mxGeometry x="1150" y="360" width="120" height="60" as="geometry" />
        </mxCell>
        <mxCell id="m0AU5EytKcPKCi6J2XwE-36" style="edgeStyle=orthogonalEdgeStyle;rounded=0;orthogonalLoop=1;jettySize=auto;html=1;entryX=0.5;entryY=0;entryDx=0;entryDy=0;" edge="1" parent="1" source="m0AU5EytKcPKCi6J2XwE-37" target="m0AU5EytKcPKCi6J2XwE-39">
          <mxGeometry relative="1" as="geometry" />
        </mxCell>
        <mxCell id="m0AU5EytKcPKCi6J2XwE-37" value="Initialise report platform" style="rounded=0;whiteSpace=wrap;html=1;fillColor=#d5e8d4;strokeColor=#82b366;" vertex="1" parent="1">
          <mxGeometry x="1225" y="40" width="120" height="60" as="geometry" />
        </mxCell>
        <mxCell id="m0AU5EytKcPKCi6J2XwE-38" value="Write section" style="rounded=0;whiteSpace=wrap;html=1;" vertex="1" parent="1">
          <mxGeometry x="1300" y="420" width="120" height="60" as="geometry" />
        </mxCell>
        <mxCell id="m0AU5EytKcPKCi6J2XwE-39" value="Define report structure" style="rounded=0;whiteSpace=wrap;html=1;fillColor=#fff2cc;strokeColor=#d6b656;" vertex="1" parent="1">
          <mxGeometry x="1150" y="180" width="270" height="60" as="geometry" />
        </mxCell>
        <mxCell id="m0AU5EytKcPKCi6J2XwE-40" value="....." style="text;html=1;align=center;verticalAlign=middle;resizable=0;points=[];autosize=1;strokeColor=none;fillColor=none;" vertex="1" parent="1">
          <mxGeometry x="1270" y="270" width="40" height="30" as="geometry" />
        </mxCell>
        <mxCell id="m0AU5EytKcPKCi6J2XwE-41" value="Write section body" style="rounded=0;whiteSpace=wrap;html=1;" vertex="1" parent="1">
          <mxGeometry x="1150" y="300" width="120" height="60" as="geometry" />
        </mxCell>
        <mxCell id="m0AU5EytKcPKCi6J2XwE-42" value="Create bullet points for section" style="rounded=0;whiteSpace=wrap;html=1;" vertex="1" parent="1">
          <mxGeometry x="1300" y="240" width="120" height="60" as="geometry" />
        </mxCell>
        <mxCell id="m0AU5EytKcPKCi6J2XwE-43" value="Proofread entire report" style="rounded=0;whiteSpace=wrap;html=1;" vertex="1" parent="1">
          <mxGeometry x="1150" y="660" width="270" height="60" as="geometry" />
        </mxCell>
        <mxCell id="m0AU5EytKcPKCi6J2XwE-44" value="Write section body" style="rounded=0;whiteSpace=wrap;html=1;" vertex="1" parent="1">
          <mxGeometry x="1300" y="300" width="120" height="60" as="geometry" />
        </mxCell>
        <mxCell id="m0AU5EytKcPKCi6J2XwE-45" value="....." style="text;html=1;align=center;verticalAlign=middle;resizable=0;points=[];autosize=1;strokeColor=none;fillColor=none;" vertex="1" parent="1">
          <mxGeometry x="1265" y="330" width="40" height="30" as="geometry" />
        </mxCell>
        <mxCell id="m0AU5EytKcPKCi6J2XwE-46" value="review section body" style="rounded=0;whiteSpace=wrap;html=1;" vertex="1" parent="1">
          <mxGeometry x="1300" y="360" width="120" height="60" as="geometry" />
        </mxCell>
        <mxCell id="m0AU5EytKcPKCi6J2XwE-47" value="Improve red thread between sections" style="rounded=0;whiteSpace=wrap;html=1;" vertex="1" parent="1">
          <mxGeometry x="1150" y="600" width="270" height="60" as="geometry" />
        </mxCell>
        <mxCell id="m0AU5EytKcPKCi6J2XwE-48" value="Write seciton" style="rounded=0;whiteSpace=wrap;html=1;" vertex="1" parent="1">
          <mxGeometry x="1150" y="420" width="120" height="60" as="geometry" />
        </mxCell>
        <mxCell id="m0AU5EytKcPKCi6J2XwE-49" value="Add visual graphs and diagrams" style="rounded=0;whiteSpace=wrap;html=1;" vertex="1" parent="1">
          <mxGeometry x="1150" y="480" width="270" height="60" as="geometry" />
        </mxCell>
        <mxCell id="m0AU5EytKcPKCi6J2XwE-50" value="....." style="text;html=1;align=center;verticalAlign=middle;resizable=0;points=[];autosize=1;strokeColor=none;fillColor=none;" vertex="1" parent="1">
          <mxGeometry x="1265" y="390" width="40" height="30" as="geometry" />
        </mxCell>
        <mxCell id="m0AU5EytKcPKCi6J2XwE-51" value="....." style="text;html=1;align=center;verticalAlign=middle;resizable=0;points=[];autosize=1;strokeColor=none;fillColor=none;" vertex="1" parent="1">
          <mxGeometry x="1265" y="435" width="40" height="30" as="geometry" />
        </mxCell>
        <mxCell id="m0AU5EytKcPKCi6J2XwE-52" style="edgeStyle=orthogonalEdgeStyle;rounded=0;orthogonalLoop=1;jettySize=auto;html=1;entryX=0.5;entryY=0;entryDx=0;entryDy=0;" edge="1" parent="1" source="m0AU5EytKcPKCi6J2XwE-53" target="m0AU5EytKcPKCi6J2XwE-55">
          <mxGeometry relative="1" as="geometry" />
        </mxCell>
        <mxCell id="m0AU5EytKcPKCi6J2XwE-53" value="find related works" style="rounded=0;whiteSpace=wrap;html=1;fillColor=#fff2cc;strokeColor=#d6b656;" vertex="1" parent="1">
          <mxGeometry x="1480" y="40" width="140" height="60" as="geometry" />
        </mxCell>
        <mxCell id="m0AU5EytKcPKCi6J2XwE-54" style="edgeStyle=orthogonalEdgeStyle;rounded=0;orthogonalLoop=1;jettySize=auto;html=1;entryX=1;entryY=0.5;entryDx=0;entryDy=0;" edge="1" parent="1" source="m0AU5EytKcPKCi6J2XwE-55" target="m0AU5EytKcPKCi6J2XwE-44">
          <mxGeometry relative="1" as="geometry" />
        </mxCell>
        <mxCell id="m0AU5EytKcPKCi6J2XwE-55" value="Read related works" style="rounded=0;whiteSpace=wrap;html=1;" vertex="1" parent="1">
          <mxGeometry x="1480" y="170" width="140" height="60" as="geometry" />
        </mxCell>
        <mxCell id="m0AU5EytKcPKCi6J2XwE-56" value="write conclussion" style="rounded=0;whiteSpace=wrap;html=1;" vertex="1" parent="1">
          <mxGeometry x="1150" y="540" width="110" height="60" as="geometry" />
        </mxCell>
        <mxCell id="m0AU5EytKcPKCi6J2XwE-57" value="Write abstract" style="rounded=0;whiteSpace=wrap;html=1;" vertex="1" parent="1">
          <mxGeometry x="1310" y="540" width="110" height="60" as="geometry" />
        </mxCell>
        <mxCell id="m0AU5EytKcPKCi6J2XwE-58" value="hand in" style="rounded=0;whiteSpace=wrap;html=1;" vertex="1" parent="1">
          <mxGeometry x="1200" y="770" width="100" height="60" as="geometry" />
        </mxCell>
      </root>
    </mxGraphModel>
  </diagram>
</mxfile>
